<?xml version="1.0" encoding="UTF-8"?>
<!DOCTYPE svg PUBLIC "-//W3C//DTD SVG 1.1//EN" "http://www.w3.org/Graphics/SVG/1.1/DTD/svg11.dtd">
<!-- Creator: CorelDRAW 2019 (64-Bit 评估版) -->
<svg xmlns="http://www.w3.org/2000/svg" xml:space="preserve" width="29.7642mm" height="11.9032mm" version="1.1" shape-rendering="geometricPrecision" text-rendering="geometricPrecision" image-rendering="optimizeQuality" fill-rule="evenodd" clip-rule="evenodd"
viewBox="0 0 879.33 351.66"
 xmlns:xlink="http://www.w3.org/1999/xlink">
 <g id="图层_x0020_1">
  <metadata id="CorelCorpID_0Corel-Layer"/>
  <g id="_2441099543584">
   <g>
    <g>
     <path fill="#0069FF" d="M175.83 0c14.54,0 26.33,11.79 26.33,26.33 0,14.54 -11.79,26.33 -26.33,26.33 -14.54,0 -26.33,-11.79 -26.33,-26.33 0,-14.54 11.79,-26.33 26.33,-26.33z"/>
     <path fill="#0069FF" d="M153.92 54.89c16.82,9.32 27.89,8.83 44.73,-0.14 1.28,-0.69 4.83,-1.43 7.27,-1.13 6.55,0.82 10.98,2.56 14.22,5.62l33.59 33.59c0.14,1.22 -0.3,1.92 -1.73,1.73l-33.7 -21.17c-5.05,-3.05 -10.35,-4.13 -16.17,-1.2 -18.58,12.1 -36.06,11.41 -52.63,0 -5.81,-2.93 -11.11,-1.85 -16.16,1.2l-33.7 21.17c-1.42,0.19 -1.87,-0.51 -1.73,-1.73l33.59 -33.59c3.3,-2.96 9.07,-5.33 15.43,-5.6 2.16,-0.09 5.28,0.3 6.99,1.25z"/>
    </g>
    <g>
     <path fill="#0069FF" d="M351.66 175.83c0,14.54 -11.79,26.33 -26.33,26.33 -14.55,0 -26.34,-11.79 -26.34,-26.33 0,-14.54 11.79,-26.33 26.34,-26.33 14.54,0 26.33,11.79 26.33,26.33z"/>
     <path fill="#0069FF" d="M296.77 153.92c-9.32,16.83 -8.83,27.89 0.14,44.73 0.68,1.28 1.43,4.83 1.13,7.27 -0.82,6.55 -2.56,10.98 -5.62,14.22l-33.59 33.59c-1.22,0.14 -1.92,-0.3 -1.73,-1.73l21.17 -33.7c3.05,-5.05 4.13,-10.35 1.2,-16.16 -12.1,-18.58 -11.41,-36.06 0,-52.63 2.93,-5.81 1.85,-11.11 -1.2,-16.16l-21.17 -33.7c-0.19,-1.42 0.51,-1.87 1.73,-1.73l33.59 33.59c2.96,3.3 5.33,9.07 5.6,15.43 0.09,2.16 -0.3,5.28 -1.25,6.99z"/>
    </g>
    <g>
     <path fill="#0069FF" d="M175.83 351.66c-14.54,0 -26.33,-11.79 -26.33,-26.33 0,-14.54 11.79,-26.34 26.33,-26.34 14.54,0 26.33,11.79 26.33,26.34 0,14.54 -11.79,26.33 -26.33,26.33z"/>
     <path fill="#0069FF" d="M197.74 296.77c-16.83,-9.32 -27.89,-8.83 -44.73,0.14 -1.28,0.69 -4.83,1.43 -7.27,1.13 -6.55,-0.82 -10.98,-2.56 -14.22,-5.62l-33.59 -33.59c-0.14,-1.23 0.3,-1.92 1.73,-1.73l33.7 21.17c5.05,3.05 10.35,4.13 16.16,1.2 18.58,-12.1 36.06,-11.41 52.63,0 5.81,2.93 11.12,1.85 16.17,-1.2l33.7 -21.17c1.42,-0.19 1.87,0.51 1.73,1.73l-33.59 33.59c-3.3,2.96 -9.07,5.33 -15.42,5.6 -2.16,0.09 -5.28,-0.3 -6.99,-1.25z"/>
    </g>
    <g>
     <path fill="#0069FF" d="M-0 175.83c0,-14.54 11.79,-26.33 26.33,-26.33 14.54,0 26.33,11.79 26.33,26.33 0,14.54 -11.79,26.33 -26.33,26.33 -14.54,0 -26.33,-11.79 -26.33,-26.33z"/>
     <path fill="#0069FF" d="M54.89 197.74c9.32,-16.83 8.83,-27.89 -0.14,-44.73 -0.69,-1.28 -1.43,-4.83 -1.13,-7.27 0.82,-6.55 2.56,-10.98 5.62,-14.22l33.59 -33.59c1.22,-0.14 1.92,0.3 1.73,1.73l-21.18 33.7c-3.05,5.05 -4.13,10.35 -1.2,16.16 12.1,18.58 11.41,36.06 0,52.63 -2.93,5.81 -1.85,11.11 1.2,16.16l21.18 33.7c0.19,1.42 -0.51,1.87 -1.73,1.73l-33.59 -33.59c-2.96,-3.3 -5.33,-9.07 -5.6,-15.42 -0.09,-2.16 0.3,-5.28 1.25,-6.99z"/>
    </g>
   </g>
   <path fill="#0069FF" fill-rule="nonzero" d="M132.63 195.24c0,2.86 0.8,5.14 2.42,6.87 1.62,1.71 2.44,3.22 2.44,4.51 0,1.67 -0.42,2.82 -1.23,3.45 -0.82,0.63 -2.23,0.94 -4.23,0.94 -1.24,0 -2.86,-0.12 -4.88,-0.37 -2.04,-0.24 -3.47,-0.37 -4.32,-0.37 -1.78,0 -4.02,0.12 -6.74,0.37 -2.74,0.25 -4.56,0.37 -5.52,0.37 -1.86,0 -3.21,-0.35 -4.01,-1.03 -0.8,-0.68 -1.2,-1.79 -1.2,-3.36 0,-1.67 0.66,-3.03 1.97,-4.08 1.32,-1.06 2.2,-1.9 2.63,-2.51 1.06,-1.22 1.79,-3.31 2.21,-6.27 0.4,-2.96 0.61,-9.01 0.61,-18.15l0 -3.07c0,-6.72 -0.17,-11.74 -0.51,-15.09 -0.35,-3.34 -0.9,-5.49 -1.69,-6.45 -0.4,-0.47 -0.99,-1.05 -1.78,-1.69 -1.47,-1.22 -2.2,-2.58 -2.2,-4.08 0,-1.55 0.49,-2.72 1.44,-3.47 0.97,-0.75 2.49,-1.12 4.53,-1.12 1.18,0 2.87,0.09 5.07,0.26 2.2,0.17 3.8,0.26 4.77,0.26 1.24,0 2.96,-0.09 5.21,-0.26 2.25,-0.17 3.85,-0.26 4.81,-0.26 1.86,0 3.14,0.25 3.8,0.73 0.66,0.51 0.99,1.39 0.99,2.68 0,0.99 -0.77,2.53 -2.3,4.6 -1.53,2.07 -2.3,4.64 -2.3,7.65l0 9.22c0,0.89 0.45,1.5 1.36,1.81 0.89,0.33 2.58,0.49 5.02,0.49 2.6,0 4.39,-0.16 5.4,-0.49 0.99,-0.31 1.5,-0.89 1.5,-1.71l0 -12.02c0,-1.39 -0.73,-2.87 -2.21,-4.44 -1.47,-1.57 -2.2,-3.15 -2.2,-4.74 0,-1.27 0.35,-2.21 1.06,-2.84 0.71,-0.63 1.76,-0.94 3.12,-0.94 0.61,0 2.02,0.09 4.22,0.26 2.2,0.17 4.08,0.26 5.65,0.26 1.81,0 3.88,-0.09 6.25,-0.26 2.37,-0.17 3.85,-0.26 4.43,-0.26 2.14,0 3.64,0.37 4.51,1.12 0.87,0.75 1.31,2 1.31,3.78 0,1.57 -0.66,2.82 -1.97,3.8 -1.31,0.96 -1.99,1.5 -2.06,1.6 -0.82,0.99 -1.41,3.07 -1.79,6.25 -0.37,3.19 -0.56,8.01 -0.56,14.48 0,10.96 0.19,18.14 0.56,21.53 0.37,3.38 1.03,5.66 1.99,6.81 0.37,0.37 0.94,0.87 1.73,1.48 1.9,1.43 2.84,2.89 2.84,4.39 0,1.67 -0.35,2.93 -1.06,3.8 -0.71,0.87 -1.76,1.31 -3.12,1.31 -1.78,0 -4.04,-0.12 -6.79,-0.37 -2.75,-0.24 -4.64,-0.37 -5.66,-0.37 -1.72,0 -3.85,0.12 -6.34,0.37 -2.51,0.25 -4.15,0.37 -4.93,0.37 -1.43,0 -2.53,-0.37 -3.28,-1.11 -0.75,-0.75 -1.11,-1.85 -1.11,-3.28 0,-1.43 0.9,-2.98 2.72,-4.67 1.81,-1.69 2.72,-3.59 2.72,-5.7l0 -14.48c0,-1.05 -0.38,-1.78 -1.15,-2.16 -0.77,-0.4 -2.72,-0.59 -5.86,-0.59 -2.27,0 -3.88,0.17 -4.84,0.54 -0.96,0.35 -1.43,0.96 -1.43,1.81l0 13.87zm76.14 -10.78l0 5.52c0,3.47 0.17,5.86 0.51,7.18 0.35,1.31 0.94,2.37 1.78,3.19 0.45,0.37 1.12,0.84 1.99,1.38 2.18,1.32 3.26,3 3.26,5 0,1.53 -0.4,2.63 -1.22,3.29 -0.82,0.66 -2.16,0.99 -4.04,0.99 -0.97,0 -2.84,-0.1 -5.56,-0.31 -2.72,-0.21 -4.93,-0.31 -6.64,-0.31 -1.6,0 -3.75,0.1 -6.43,0.31 -2.68,0.21 -4.56,0.31 -5.61,0.31 -1.88,0 -3.21,-0.35 -4.01,-1.03 -0.8,-0.68 -1.2,-1.79 -1.2,-3.36 0,-1.73 0.84,-3.21 2.51,-4.44 0.96,-0.68 1.66,-1.29 2.09,-1.83 1.06,-1.32 1.79,-3.5 2.21,-6.53 0.4,-3.03 0.61,-9.11 0.61,-18.23l0 -3.05c0,-6.71 -0.17,-11.73 -0.51,-15.09 -0.35,-3.34 -0.9,-5.52 -1.69,-6.55 -0.37,-0.42 -0.94,-0.92 -1.73,-1.53 -1.5,-1.24 -2.25,-2.6 -2.25,-4.09 0,-1.55 0.49,-2.7 1.44,-3.47 0.97,-0.77 2.42,-1.15 4.32,-1.15 0.17,0 1.79,0.07 4.84,0.21 3.07,0.14 6.01,0.21 8.83,0.21 1.53,0 3.75,-0.07 6.62,-0.21 2.87,-0.14 4.98,-0.21 6.34,-0.21 7.13,0 12.6,1.81 16.41,5.44 3.83,3.62 5.75,8.78 5.75,15.45 0,2.61 -0.44,4.93 -1.33,6.93 -0.89,2.02 -2.25,3.78 -4.07,5.31 -0.45,0.35 -1.03,0.77 -1.74,1.27 -0.96,0.66 -1.43,1.13 -1.43,1.43 0,0.14 0.26,0.56 0.77,1.24 3.33,4.72 6.22,10.63 8.68,17.7 1.15,3.28 2.72,5.51 4.7,6.69 0.19,0.14 0.37,0.24 0.51,0.31 1.15,0.71 1.91,1.41 2.26,2.09 0.37,0.68 0.54,1.59 0.54,2.7 0,1.43 -0.38,2.42 -1.15,2.96 -0.77,0.54 -2.16,0.82 -4.16,0.82 -0.32,0 -1.22,-0.1 -2.74,-0.31 -1.52,-0.21 -2.86,-0.31 -4.06,-0.31 -0.99,0 -2.37,0.1 -4.17,0.31 -1.78,0.21 -3.08,0.31 -3.9,0.31 -3.21,0 -5.28,-1.85 -6.24,-5.52 -0.04,0 -0.05,0 -0.05,0l-4.6 -17.72c-0.68,-2.65 -1.34,-4.27 -1.99,-4.84 -0.64,-0.58 -1.71,-0.87 -3.21,-0.87 -0.47,0 -0.8,0.12 -0.99,0.37 -0.19,0.23 -0.28,0.91 -0.28,2.04zm0 -15.35c0,1.18 0.12,2.01 0.35,2.46 0.24,0.43 0.68,0.66 1.32,0.66 2.11,0 3.68,-0.87 4.72,-2.63 1.03,-1.76 1.55,-4.48 1.55,-8.15 0,-3 -0.52,-5.47 -1.55,-7.42 -1.05,-1.94 -2.33,-2.91 -3.9,-2.91 -0.87,0 -1.52,0.28 -1.9,0.82 -0.4,0.54 -0.59,1.52 -0.59,2.91l0 14.27z"/>
   <path fill="#5F5D5D" fill-rule="nonzero" d="M510.59 147.38l-71.66 0 0 -11.39 8.1 0 0 -20.8 -6.93 0 0 -11.63 6.93 0 0 -11.98 18.44 0 0 11.98 20.32 0 0 -12.1 18.44 0 0 12.1 5.29 0 0 11.63 -5.29 0 0 20.8 6.34 0 0 11.39zm-45.11 -11.39l20.32 0 0 -20.8 -20.32 0 0 20.8zm0.12 14.68l-5.87 25.37 -18.33 0 5.87 -25.37 18.33 0zm44.29 25.37l-18.33 0 -5.76 -25.37 18.33 0 5.76 25.37zm-74.12 -57.8l-7.99 0 7.99 19.38 -17.5 0 -10.81 -26.47 7.99 0 -7.99 -19.34 17.5 0 10.81 26.43zm-17.5 24.79l17.5 0 -10.81 33.6 -17.5 0 10.81 -33.6zm174.76 -8.81l-28.9 0 0 -9.05 71.11 0 0 9.05 -25.96 0 -1.76 4.7 16.6 0c2.9,0 5.34,1.02 7.38,3.05 2.02,2.04 3.04,4.51 3.04,7.4l0 16.21c0,1.57 -0.31,2.98 -0.94,4.23 -0.47,1.41 -1.26,2.55 -2.35,3.41 -1.02,1.02 -2.23,1.84 -3.64,2.47 -1.26,0.55 -2.66,0.82 -4.23,0.82l-6.11 0 2.66 -8.69c0.64,-0.08 0.98,-0.43 0.98,-1.06l0 -16.68c0,-1.57 -0.72,-2.35 -2.17,-2.35l-2.76 0 0 28.78 -13.27 0 0 -28.78 -4.7 0 0 28.78 -13.63 0 0 -28.78 -5.4 0 0 28.78 -13.63 0 0 -37.59 25.69 0 2 -4.7zm-31.68 39.35l-29.6 2.7 0 -10.46 6.58 -0.7 0 -25.14 -6.58 0 0 -10.57 6.58 0 0 -27.14 -6.58 0 0 -10.57 30.19 0 0 10.57 -7.28 0 0 27.14 7.28 0 0 10.57 -7.28 0 0 23.61 6.69 -0.59 0 10.57zm62.03 -51.93l-58.03 0 0 -28.43 15.98 0 0 19.38 10.69 0 0 -20.91 15.98 0 0 20.91 6.74 0c0.94,0 1.82,-0.31 2.68,-0.94 0.69,-0.84 1.04,-1.74 1.04,-2.68l0 -15.76 16.1 0 0 17.27c0,1.65 -0.31,3.13 -0.94,4.46 -0.39,1.1 -1.18,2.23 -2.35,3.41 -1.02,1.02 -2.23,1.8 -3.64,2.35 -0.63,0.31 -1.31,0.55 -2.06,0.71 -0.74,0.16 -1.47,0.23 -2.17,0.23zm121.82 -8.81c1.96,0 3.82,0.37 5.58,1.12 1.76,0.74 3.31,1.78 4.64,3.11 1.33,1.33 2.37,2.88 3.11,4.64 0.74,1.76 1.12,3.62 1.12,5.58l0 5.05 -14.57 0 0 -5.11c0,-1.12 -0.39,-2.07 -1.17,-2.86 -0.78,-0.8 -1.72,-1.2 -2.82,-1.2l-70.13 0 0 9.16 -14.57 0 0 -19.5 88.81 0zm-0.23 -17.39l14.68 0 0 9.4 -18.8 0 -1.53 3.41 -16.92 0 1.53 -3.41 -31.84 0 1.53 3.41 -16.92 0 -1.53 -3.41 -18.8 0 0 -9.4 14.69 0 -1.65 -3.76 16.92 0 1.65 3.76 40.06 0 1.64 -3.76 16.92 0 -1.64 3.76zm-43.47 32.19l-3.99 9.87 56.97 0 0 25.96c0,1.8 -0.33,3.49 -1,5.05 -0.66,1.57 -1.58,2.94 -2.76,4.11 -1.18,1.17 -2.55,2.09 -4.11,2.76 -1.57,0.66 -3.25,1 -5.05,1l-23.26 0 5.17 -11.63 11.04 0c1.02,0 1.88,-0.35 2.58,-1.05 0.71,-0.71 1.06,-1.57 1.06,-2.59l0 -11.98 -45.34 0 -11.04 27.25 -17.03 0 11.04 -27.25 -14.1 0 0 -11.63 18.8 0 3.99 -9.87 17.03 0zm177.85 37.51c0,1.57 -0.29,3 -0.88,4.33 -0.59,1.33 -1.37,2.51 -2.35,3.52 -0.98,1 -2.15,1.8 -3.52,2.39 -1.37,0.59 -2.8,0.88 -4.29,0.88l-26.31 0 5.29 -10.34 13.86 0c1.02,0 1.88,-0.35 2.59,-1.06 0.7,-0.69 1.06,-1.59 1.06,-2.66l0 -10.49 -51.93 0 -17.39 24.67 -17.39 0 17.5 -24.67 -17.5 0 0 -9.05 23.97 0 3.99 -5.87 17.39 0 -4.11 5.87 45.46 0 6.11 0 8.46 0 0 22.13 0 0.35zm-1.76 -27.06c-7.52,-0.31 -15.64,-0.88 -24.38,-1.7 -8.73,-0.82 -17.48,-2.14 -26.26,-3.94 -8.69,1.8 -17.41,3.11 -26.14,3.94 -8.73,0.82 -16.86,1.39 -24.38,1.7l0 -11.63c4.46,-0.3 8.69,-0.59 12.69,-0.88 3.99,-0.3 7.79,-0.63 11.39,-1 -4.46,-1.8 -8.56,-3.84 -12.28,-6.11 -3.72,-2.27 -6.99,-4.82 -9.81,-7.64l22.32 0c4.31,2.19 8.57,4.05 12.8,5.58 4.23,1.53 8.69,2.84 13.39,3.94 5.48,-1.33 10.67,-2.94 15.56,-4.82 4.9,-1.88 9.85,-4.19 14.86,-6.93l-65.55 0 -11.98 0 -2.59 0 8.93 -16.92 14.57 0 -3.41 6.34 80.23 0 0 10.57c-2.9,3.37 -6.4,6.36 -10.51,8.99 -4.11,2.62 -8.64,4.95 -13.57,6.99 3.6,0.37 7.4,0.7 11.39,1 3.99,0.29 8.22,0.58 12.69,0.88l0 11.63z"/>
   <path fill="#5F5D5D" fill-rule="nonzero" d="M449.57 218.76l0 -22.73 -4.81 0 0 8.63 -32.54 0 0 -8.68 -4.77 0 0 22.78 4.77 0 0 -9.2 32.54 0 0 9.2 4.81 0zm51.2 0l-3.63 -9.2 0.38 0c2.17,0 3.26,-1.73 3.26,-5.19l0 -3.82c0,-3.11 -1.08,-4.67 -3.26,-4.67l-38.77 0 0 22.88 4.72 0 0 -9.2 28.58 0 3.73 9.2 5 0zm-5.8 -17.59c0.38,0.25 0.65,0.53 0.83,0.82 0.17,0.3 0.26,0.61 0.26,0.92 0,0.72 -0.39,1.27 -1.18,1.65l-31.41 0 0 -3.4 31.51 0zm76.69 12.03l0 -3.54c0,-3.43 -1.23,-5.14 -3.68,-5.14l-32.5 0c-0.28,0 -0.53,-0.12 -0.76,-0.35 -0.22,-0.24 -0.33,-0.61 -0.33,-1.11 0,-0.53 0.11,-0.97 0.33,-1.3 0.22,-0.33 0.47,-0.5 0.76,-0.5l36.18 0 0 -5.38 -38.63 0c-2.23,0 -3.35,1.59 -3.35,4.76l0 3.87c0,3.33 1.1,5.01 3.3,5.05l32.54 0c0.88,0.03 1.32,0.71 1.32,2.03 -0.12,0.22 -0.3,0.49 -0.54,0.8 -0.24,0.31 -0.53,0.56 -0.87,0.75l-35.75 0 0 5.61 38.3 0c2.45,0 3.68,-1.86 3.68,-5.57zm51.24 5.57l0 -5.71 -37.17 0 0 -3.49 37.17 0 0 -4.91 -37.17 0 0 -3.49 37.17 0 0 -5.19 -41.93 0 0 22.78 41.93 0zm51.38 0l-3.63 -9.2 0.38 0c2.17,0 3.26,-1.73 3.26,-5.19l0 -3.82c0,-3.11 -1.08,-4.67 -3.26,-4.67l-38.77 0 0 22.88 4.72 0 0 -9.2 28.58 0 3.73 9.2 5 0zm-5.8 -17.59c0.38,0.25 0.65,0.53 0.83,0.82 0.17,0.3 0.26,0.61 0.26,0.92 0,0.72 -0.39,1.27 -1.18,1.65l-31.41 0 0 -3.4 31.51 0zm50.86 -5.28l6.13 0 -19.53 22.83 -5 0 -17.45 -22.83 6.13 0 13.87 17.55 15.85 -17.55zm15.4 22.83l41.98 0 0 -5.66 -18.68 0 0 -11.89 18.68 0 0 -5.19 -41.98 0 0 5.19 18.49 0 0 11.89 -18.49 0 0 5.66zm93.32 0.05l0 -5.8 -36.6 0 -0.47 -1.42 0 -8.21c0.03,-0.56 0.28,-1.26 0.76,-2.07l36.32 0 0 -5.24 -38.35 0c-2.42,0 -3.63,1.59 -3.63,4.76l0 12.45c0,3.68 1.21,5.52 3.63,5.52l38.35 0zm51.24 0l0 -5.71 -37.17 0 0 -3.49 37.17 0 0 -4.91 -37.17 0 0 -3.49 37.17 0 0 -5.19 -41.93 0 0 22.78 41.93 0z"/>
   <path fill="#5F5D5D" fill-rule="nonzero" d="M428.6 255.28l0 1.44 15.24 0 -0.66 -8.45 2.76 0c0.26,3.98 0.46,6.81 0.61,8.51l13.2 0 0 1.38 -13.09 0c0.74,9.24 1.86,16.9 3.37,22.98 2.32,-5.71 3.96,-11.23 4.92,-16.57l2.76 0c-1.62,7.77 -3.79,14.65 -6.52,20.65 2.14,6.66 4.93,11.05 8.39,13.14l-0.22 1.38c-4.12,-1.44 -7.38,-5.17 -9.78,-11.21 -2.87,5.6 -6.02,9.41 -9.45,11.43l-0.22 -1.38c2.83,-3.02 5.65,-7.53 8.45,-13.53 -1.14,-3.61 -2.04,-7.62 -2.68,-12.04 -0.64,-4.42 -1.21,-9.39 -1.68,-14.91l-15.41 0 0 8.95 5.19 -0.72c0.77,-0.11 1.44,-0.17 1.99,-0.17 1.07,0 1.87,0.19 2.4,0.58 0.53,0.39 0.9,1 1.1,1.85 0.2,0.85 0.3,2.06 0.3,3.65l0 19.6c0,1.84 -0.26,3.1 -0.77,3.78 -0.52,0.68 -1.4,1.02 -2.65,1.02l-3.86 0 -0.28 -1.38 2.32 0c1.65,0 2.48,-1.05 2.48,-3.15l0 -19.44c0,-1.91 -0.34,-3.25 -1.02,-4.01 -0.68,-0.75 -1.57,-1.08 -2.68,-0.97 -1.36,0.15 -2.87,0.37 -4.53,0.66l0 9.66c0,5.56 -0.52,10.28 -1.55,14.17 -1.03,3.88 -2.52,6.49 -4.47,7.81l-0.22 -1.38c1.14,-1.69 2.01,-4.39 2.6,-8.09 0.59,-3.7 0.88,-7.94 0.88,-12.73l0 -22.53 2.76 0zm-21.15 8.67l6.52 0c0.96,0 1.66,0.12 2.1,0.36 0.44,0.24 0.76,0.73 0.94,1.46 0.18,0.74 0.27,1.93 0.27,3.59l0 23.42c0,0.99 0.18,1.73 0.53,2.21 0.35,0.48 0.98,0.72 1.91,0.72l1.99 0 -0.55 1.44 -3.2 0c-1.07,0 -1.91,-0.41 -2.51,-1.24 -0.61,-0.83 -0.91,-2.07 -0.91,-3.73l0 -22.36c0,-1.58 -0.07,-2.67 -0.22,-3.26 -0.15,-0.59 -0.41,-0.96 -0.8,-1.1 -0.39,-0.15 -1.11,-0.22 -2.18,-0.22l-3.87 0 0 -1.27zm8.56 -15.35l3.81 11.21 -2.76 0 -3.81 -11.21 2.76 0zm38.77 0.5l2.15 5.69 -2.76 0 -2.15 -5.69 2.76 0zm25.95 7.57l0 -1.38 17.95 0 0 -7.07 2.76 0 0 7.07 16.57 0 0 1.38 -37.28 0zm-14.36 12.92c2.72,-2.98 4.98,-6.3 6.77,-9.97 1.79,-3.66 2.99,-7.48 3.62,-11.46l2.76 0c-0.77,4.42 -2.08,8.62 -3.92,12.62 -1.84,4 -4.84,7.39 -9,10.19l-0.22 -1.38zm6.9 -3.59l2.76 0 0 33.96 -2.76 0 0 -33.96zm10.71 6.52l31.64 0 0 1.38 -31.64 0 0 -1.38zm0 -8.67l31.64 0 0 1.38 -31.64 0 0 -1.38zm0.55 15.68l2.76 0 0 1.65c0.3,-0.04 1.05,-0.13 2.26,-0.27 3.28,-0.4 6.01,-0.7 8.2,-0.88 2.19,-0.18 4.45,-0.24 6.77,-0.17 2.98,0.07 5.18,0.21 6.6,0.41 1.42,0.2 2.5,0.7 3.26,1.49 0.75,0.79 1.13,2.05 1.13,3.78l0 13.03 -28.22 0 0 1.55 -2.76 0 0 -20.6zm28.22 17.67l0 -10.77c0,-1.51 -0.17,-2.6 -0.52,-3.29 -0.35,-0.68 -1.12,-1.17 -2.32,-1.46 -1.2,-0.3 -3.1,-0.44 -5.72,-0.44 -2.65,0 -5.33,0.12 -8.04,0.36 -2.71,0.24 -5.66,0.56 -8.86,0.97l0 14.63 25.46 0zm37.44 -42.36l2.76 0 0 44.9 -2.76 0 0 -44.9zm56.05 2.38l2.65 -9 2.71 0 -2.65 9 27.11 0 0 1.38 -27.56 0 -2.6 8.78 34.29 0 0 1.38 -34.68 0 -1.71 5.8c-0.04,0.11 -0.07,0.23 -0.11,0.36 -0.04,0.13 -0.05,0.28 -0.05,0.47 0,0.74 0.59,1.1 1.77,1.1l24.46 0c1.25,0 2.19,0.16 2.82,0.47 0.63,0.31 0.94,0.73 0.94,1.24 0,0.55 -0.3,1.12 -0.88,1.71l-14.36 14.08 9.11 5.47 -3.53 0 -24.36 -14.52 3.53 0 13.09 7.78 13.2 -13.14c0.37,-0.37 0.55,-0.68 0.55,-0.94 0,-0.52 -0.68,-0.77 -2.04,-0.77l-24.19 0c-1.95,0 -2.93,-0.59 -2.93,-1.77 0,-0.22 0.04,-0.43 0.11,-0.64 0.07,-0.2 0.11,-0.34 0.11,-0.41l1.82 -6.3 -14.52 0 0 -1.38 14.96 0 2.54 -8.78 -14.19 0 0 -1.38 14.58 0zm91.23 41.03l-49.81 0 0 -1.38 16.02 0 0 -47.38 2.76 0 0 47.38 12.43 0 0 -47.38 2.76 0 0 47.38 15.85 0 0 1.38zm-43.24 -39.04l4.42 26.95 -2.76 0 -4.42 -26.95 2.76 0zm36.67 0l2.76 0 -4.42 26.95 -2.76 0 4.42 -26.95zm39.93 -4.36l2.76 0 0 44.9 -2.76 0 0 -44.9zm89.91 24.74l-51.97 0 0 -1.38 13.97 0 0 -16.62 -12.15 0 0 -1.38 12.15 0 0 -11.98 2.76 0 0 11.98 19.94 0 0 -11.98 2.76 0 0 11.98 11.1 0 0 1.38 -11.1 0 0 16.62 12.54 0 0 1.38zm-35.68 4.09l2.98 0 -10.77 16.29 -2.98 0 10.77 -16.29zm20.38 -5.47l0 -16.62 -19.94 0 0 16.62 19.94 0zm-0.5 5.47l10.77 16.29 -2.98 0 -10.77 -16.29 2.98 0zm47.22 -30.6l0 -4.86 2.76 0 0 4.86 24.35 0 0 1.38 -43.35 0 0 2.32c0,0.55 0.11,0.95 0.33,1.19 0.22,0.24 0.71,0.4 1.47,0.5 0.75,0.09 2.01,0.14 3.78,0.14l35.12 0 -0.55 1.38 -38.38 0c-1.18,0 -2.08,-0.07 -2.71,-0.22 -0.62,-0.15 -1.08,-0.45 -1.38,-0.91 -0.3,-0.46 -0.44,-1.17 -0.44,-2.13l0 -2.26 -5.75 0 0 -1.38 24.74 0zm-24.08 45.51c0.88,-1.4 1.44,-3.18 1.68,-5.36 0.24,-2.17 0.36,-4.88 0.36,-8.12l0 -11.27 2.49 0 0 1.38c1.65,-0.22 2.85,-0.35 3.59,-0.39 1.18,-0.07 1.95,-0.11 2.32,-0.11 1.29,0 2.18,0.16 2.68,0.47 0.5,0.31 0.8,0.82 0.91,1.52 0.11,0.7 0.17,1.97 0.17,3.81l0 13.37c0,1.58 -0.15,2.77 -0.44,3.56 -0.29,0.79 -0.72,1.31 -1.27,1.57 -0.55,0.26 -1.34,0.39 -2.37,0.39l-3.15 0 -0.33 -1.38 2.43 0c0.96,0 1.64,-0.26 2.04,-0.77 0.4,-0.51 0.61,-1.44 0.61,-2.76l0 -4.91 -7.34 0c-0.19,2.69 -0.59,4.78 -1.22,6.27 -0.63,1.49 -1.62,2.86 -2.98,4.12l-0.17 -1.38zm4.09 -35.84l2.76 0 0 1.38c3.9,-0.22 8.53,-0.4 13.89,-0.55 5.36,-0.14 9.89,-0.22 13.61,-0.22l4.36 0c2.39,0 4.13,0.1 5.22,0.3 1.09,0.2 1.86,0.66 2.32,1.38 0.46,0.72 0.69,1.87 0.69,3.45l0 2.48 -40.09 0 0 1.27 -2.76 0 0 -9.5zm7.62 25.46l0 -5.24 -7.18 0 0 1.05c0,1.95 -0.02,3.35 -0.06,4.2l7.24 0zm0 -6.63l0 -0.17c0,-1.77 -0.08,-2.99 -0.25,-3.67 -0.17,-0.68 -0.46,-1.1 -0.88,-1.27 -0.43,-0.17 -1.23,-0.25 -2.4,-0.25 -0.74,0 -1.95,0.13 -3.64,0.39l0 4.97 7.18 0zm32.47 -11.98l0 -1.1c0,-1.14 -0.14,-1.94 -0.41,-2.4 -0.27,-0.46 -0.98,-0.78 -2.13,-0.97 -1.14,-0.19 -3.15,-0.31 -6.02,-0.39l-3.65 -0.06c-3.53,0 -7.71,0.08 -12.54,0.25 -4.82,0.17 -9.02,0.36 -12.59,0.58l0 4.09 37.33 0zm-28.66 29.05c1.03,-0.33 2.11,-0.97 3.23,-1.93 1.12,-0.96 2.06,-2.1 2.82,-3.42 0.76,-1.32 1.13,-2.65 1.13,-3.98l0 -11.26 2.76 0 0 10.16c0,1.07 -0.11,2.08 -0.33,3.04l1.27 0 4.59 8.89 -2.76 0 -3.7 -7.18c-1.4,3.24 -4.33,5.6 -8.78,7.07l-0.22 -1.38zm1.05 -24.3l2.48 0 0 1.44c2.32,-0.33 4.23,-0.55 5.74,-0.66 1.33,-0.07 2.17,-0.11 2.54,-0.11 1.32,0 2.28,0.17 2.87,0.52 0.59,0.35 0.97,0.92 1.13,1.71 0.17,0.79 0.25,2.05 0.25,3.78l0 10.77 -2.48 0 0 -9.89c0,-1.95 -0.06,-3.25 -0.17,-3.89 -0.11,-0.64 -0.4,-1.08 -0.88,-1.3 -0.48,-0.22 -1.4,-0.33 -2.76,-0.33 -0.92,0 -3,0.24 -6.24,0.72l0 14.69 -2.48 0 0 -17.45zm15.74 24.24c0.66,-1.51 1.18,-3.49 1.55,-5.94 0.37,-2.45 0.55,-4.96 0.55,-7.54l0 -11.27 2.48 0 0 1.38c1.77,-0.22 3.13,-0.35 4.09,-0.39 0.48,-0.04 1.12,-0.06 1.93,-0.06 1.51,0 2.58,0.16 3.2,0.47 0.63,0.31 1.01,0.83 1.16,1.55 0.15,0.72 0.22,1.96 0.22,3.73l0 14.36c0,0.96 0.04,1.64 0.11,2.04 0.07,0.4 0.23,0.66 0.47,0.77 0.24,0.11 0.64,0.17 1.19,0.17l1.66 0 -0.28 1.38 -2.54 0c-1.03,0 -1.74,-0.09 -2.12,-0.27 -0.39,-0.19 -0.64,-0.6 -0.77,-1.24 -0.13,-0.64 -0.19,-1.8 -0.19,-3.45l0 -12.87c0,-1.77 -0.07,-2.98 -0.22,-3.65 -0.15,-0.66 -0.46,-1.08 -0.94,-1.27 -0.48,-0.19 -1.38,-0.28 -2.71,-0.28 -0.33,0 -1.75,0.13 -4.25,0.39l0 7.4c0,2.95 -0.19,5.37 -0.55,7.26 -0.37,1.9 -0.84,3.44 -1.41,4.64 -0.57,1.2 -1.37,2.55 -2.4,4.06l-0.22 -1.38zm9.17 -16.07l1.05 10 -2.21 0 -1.05 -10 2.21 0z"/>
  </g>
 </g>
</svg>
